<?xml version="1.0" encoding="UTF-8"?>
<svg width="44px" height="44px" viewBox="0 0 44 44" version="1.1" xmlns="http://www.w3.org/2000/svg" xmlns:xlink="http://www.w3.org/1999/xlink">
    <!-- Generator: Sketch 43.2 (39069) - http://www.bohemiancoding.com/sketch -->
    <title>about</title>
    <desc>Created with Sketch.</desc>
    <defs></defs>
    <g id="Page-1" stroke="none" stroke-width="1" fill="none" fill-rule="evenodd">
        <g id="Desktop-HD-Copy" transform="translate(-757.000000, -305.000000)" fill="#0000FF">
            <g id="about" transform="translate(757.000000, 305.000000)">
                <path d="M43.9861257,21.9264214 C43.9861257,9.85953177 34.1297029,0 22.0666182,0 C9.85642281,0 0,9.85953177 0,21.9264214 C0,34.1404682 9.85642281,44 22.0666182,44 C34.1297029,44 43.9861257,34.1404682 43.9861257,21.9264214 Z M41,21.9277567 C41,32.6197719 32.6197719,41 22.0722433,41 C11.3802281,41 3,32.6197719 3,21.9277567 C3,11.3802281 11.3802281,3 22.0722433,3 C32.6197719,3 41,11.3802281 41,21.9277567 Z" id="Shape" fill-rule="nonzero"></path>
                <path d="M22.3142857,12 C21.6042053,12 21.0285714,12.5674124 21.0285714,13.2822191 L21.0285714,13.6606379 C21.0285714,14.368788 21.5992548,14.9428571 22.3142857,14.9428571 L22.3142857,14.9428571 C23.0243661,14.9428571 23.5999999,14.3754446 23.5999999,13.6606379 L23.5999999,13.2822191 C23.5999999,12.5740691 23.0293166,12 22.3142857,12 L22.3142857,12 Z M22.2857143,18 C21.5756339,18 21,18.5777104 21,19.2929578 L21,30.9927565 C21,31.7068374 21.5706833,32.2857143 22.2857143,32.2857143 L22.2857143,32.2857143 C22.9957947,32.2857143 23.5714286,31.7080039 23.5714286,30.9927565 L23.5714286,19.2929578 C23.5714286,18.5788769 23.0007452,18 22.2857143,18 L22.2857143,18 Z" id="i" stroke="#0000FF" stroke-width="0.5"></path>
            </g>
        </g>
    </g>
</svg>