<?xml version="1.0" encoding="UTF-8"?>
<svg width="22px" height="22px" viewBox="0 0 22 22" version="1.1" xmlns="http://www.w3.org/2000/svg" xmlns:xlink="http://www.w3.org/1999/xlink">
    <!-- Generator: Sketch 43.2 (39069) - http://www.bohemiancoding.com/sketch -->
    <title>about-1</title>
    <desc>Created with Sketch.</desc>
    <defs></defs>
    <g id="Page-1" stroke="none" stroke-width="1" fill="none" fill-rule="evenodd">
        <g id="Desktop-HD-Copy" transform="translate(-1191.000000, -262.000000)" fill="#0000FF">
            <g id="about-1" transform="translate(1191.000000, 262.000000)">
                <path d="M21.9930628,10.9632107 C21.9930628,4.92976589 17.0648514,0 11.0333091,0 C4.92821141,0 0,4.92976589 0,10.9632107 C0,17.0702341 4.92821141,22 11.0333091,22 C17.0648514,22 21.9930628,17.0702341 21.9930628,10.9632107 Z M20.5,10.9638783 C20.5,16.3098859 16.3098859,20.5 11.0361217,20.5 C5.69011407,20.5 1.5,16.3098859 1.5,10.9638783 C1.5,5.69011407 5.69011407,1.5 11.0361217,1.5 C16.3098859,1.5 20.5,5.69011407 20.5,10.9638783 Z" id="Shape" fill-rule="nonzero"></path>
                <path d="M11.0571673,5.6000061 C10.7021271,5.6000061 10.4143101,5.87971646 10.4143101,6.24052894 L10.4143101,6.41018746 C10.4143101,6.76393845 10.6996518,7.05071029 11.0571673,7.05071029 L11.0571673,7.05071029 C11.4122074,7.05071029 11.7000244,6.77099993 11.7000244,6.41018746 L11.7000244,6.24052894 C11.7000244,5.88677794 11.4146827,5.6000061 11.0571673,5.6000061 L11.0571673,5.6000061 Z M11.0428816,8.55775258 C10.6878414,8.55775258 10.4000244,8.84253938 10.4000244,9.20764805 L10.4000244,14.9501106 C10.4000244,15.309038 10.6853661,15.6000061 11.0428816,15.6000061 L11.0428816,15.6000061 C11.3979218,15.6000061 11.6857387,15.3152193 11.6857387,14.9501106 L11.6857387,9.20764805 C11.6857387,8.84872069 11.400397,8.55775258 11.0428816,8.55775258 L11.0428816,8.55775258 Z" id="i" stroke="#0000FF" stroke-width="0.2"></path>
            </g>
        </g>
    </g>
</svg>