<?xml version="1.0" encoding="UTF-8"?>
<svg width="23px" height="21px" viewBox="0 0 23 21" version="1.1" xmlns="http://www.w3.org/2000/svg" xmlns:xlink="http://www.w3.org/1999/xlink">
    <!-- Generator: Sketch 43.2 (39069) - http://www.bohemiancoding.com/sketch -->
    <title>press-1</title>
    <desc>Created with Sketch.</desc>
    <defs></defs>
    <g id="Page-1" stroke="none" stroke-width="1" fill="none" fill-rule="evenodd">
        <g id="Desktop-HD-Copy" transform="translate(-1230.000000, -264.000000)">
            <g id="press-1" transform="translate(1230.000000, 264.000000)">
                <path d="M21.1234479,18.7514414 L21.1917168,18.8598077 C21.3544849,19.1854699 21.3544849,19.5910527 21.2269621,19.9737691 L21.1917168,20.0588915 C20.9852148,20.4720555 20.5405256,20.65 20.0698529,20.65 L19.9926471,20.65 C18.7102515,20.65 15.5446094,19.0851184 13.2780483,16.4020325 L4.86029412,16.4020325 C2.35346957,16.4020325 0.35,14.4256241 0.35,11.9674797 L0.35,4.78455285 C0.35,2.3788761 2.37809093,0.35 4.86029412,0.35 L18.1397059,0.35 C20.5689822,0.35 22.65,2.40330535 22.65,4.78455285 L22.65,11.9674797 C22.65,13.9030098 21.4258512,15.5518303 19.6320161,16.1455243 C19.8949506,16.9597461 20.3444589,17.7494964 21.1234479,18.7514414 Z M18.1989765,15.8109403 L18.0564499,15.1455589 L18.7276592,15.0336474 C20.2654181,14.777255 21.35,13.5051839 21.35,11.9674797 L21.35,4.78455285 C21.35,3.12520562 19.8548842,1.65 18.1397059,1.65 L4.86029412,1.65 C3.09617377,1.65 1.65,3.09673366 1.65,4.78455285 L1.65,11.9674797 C1.65,13.7036668 3.0675122,15.1020325 4.86029412,15.1020325 L13.8959828,15.1020325 L14.0911246,15.3447351 C16.0905071,17.8314164 18.9726886,19.29874 19.9432616,19.3486824 C18.9611276,18.0491361 18.4539961,17.0014925 18.1989765,15.8109403 Z M20.0698529,19.35 L19.9926471,19.35 C19.9767858,19.35 19.9603189,19.3495601 19.9432616,19.3486824 C19.9688932,19.3825978 19.9948484,19.4166847 20.021131,19.4509503 C20.025388,19.4565003 20.0296536,19.4620549 20.0339277,19.4676143 C20.0547928,19.4947532 20.075863,19.5220045 20.0971403,19.5493717 L20.6102941,19.1504065 L20.0288714,19.4410053 C20.0257354,19.4347307 20.0237762,19.4389564 20.021131,19.4509503 C20.0167279,19.4709149 20.0104238,19.5124037 19.9936261,19.5628162 L20.0288714,19.4776939 C20.0305969,19.4742416 20.0322823,19.4708826 20.0339277,19.4676143 C20.0413907,19.4527912 20.0480333,19.439834 20.0538754,19.4285082 C20.0928372,19.3529754 20.0961974,19.35 20.0698529,19.35 Z" id="Shape" fill="#0000FF" fill-rule="nonzero"></path>
                <path d="M5.5,10.5 L12.7618974,10.5" id="Line" stroke="#0000FF" stroke-linecap="round" stroke-linejoin="round"></path>
                <path d="M5.5,8 L17.2538462,8" id="Line" stroke="#0000FF" stroke-linecap="round" stroke-linejoin="round"></path>
                <path d="M5.5,5.5 L17.2538462,5.5" id="Line" stroke="#0000FF" stroke-linecap="round" stroke-linejoin="round"></path>
            </g>
        </g>
    </g>
</svg>