<?xml version="1.0" encoding="UTF-8"?>
<svg width="20px" height="24px" viewBox="0 0 20 24" version="1.1" xmlns="http://www.w3.org/2000/svg" xmlns:xlink="http://www.w3.org/1999/xlink">
    <!-- Generator: Sketch 43.2 (39069) - http://www.bohemiancoding.com/sketch -->
    <title>visit-1</title>
    <desc>Created with Sketch.</desc>
    <defs></defs>
    <g id="Page-1" stroke="none" stroke-width="1" fill="none" fill-rule="evenodd">
        <g id="Desktop-HD-Copy" transform="translate(-1268.000000, -262.000000)" fill-rule="nonzero" fill="#0000FF">
            <g id="visit-1" transform="translate(1268.000000, 262.000000)">
                <path d="M15.9295697,15.7020044 C19.2049147,12.4734501 19.204692,7.24061619 15.9295697,4.01228131 C12.6542247,0.783726973 7.34555265,0.783946444 4.07043032,4.01228131 C0.795085335,7.24083566 0.795307987,12.4736695 4.07043032,15.7020044 L10,21.5468659 L15.9295697,15.7020044 Z M3.03743962,2.99404763 C6.88275554,-0.796335204 13.116399,-0.797168605 16.9625604,2.99404763 C20.8078763,6.78443046 20.8087218,12.9290219 16.9625604,16.7202381 L10,23.5833333 L3.03743962,16.7202381 C-0.807876293,12.9298553 -0.808721773,6.78526386 3.03743962,2.99404763 Z" id="Rectangle-2"></path>
                <path d="M7.87642746,7.87642746 C6.70537124,9.04748367 6.70463243,10.9517775 7.87642746,12.1235725 C9.04748367,13.2946288 10.9517775,13.2953676 12.1235725,12.1235725 C13.2946288,10.9525163 13.2953676,9.04822248 12.1235725,7.87642746 C10.9525163,6.70537124 9.04822248,6.70463243 7.87642746,7.87642746 Z M7.17083518,7.17083518 C8.73244068,5.60922968 11.2685433,5.61021362 12.8291648,7.17083518 C14.3907703,8.73244068 14.3897864,11.2685433 12.8291648,12.8291648 C11.2675593,14.3907703 8.73145673,14.3897864 7.17083518,12.8291648 C5.60922968,11.2675593 5.61021362,8.73145673 7.17083518,7.17083518 Z" id="Rectangle-2" stroke="#0000FF" stroke-width="0.3"></path>
            </g>
        </g>
    </g>
</svg>