<?xml version="1.0" encoding="UTF-8"?>
<svg width="77px" height="43px" viewBox="0 0 77 43" version="1.1" xmlns="http://www.w3.org/2000/svg" xmlns:xlink="http://www.w3.org/1999/xlink">
    <!-- Generator: Sketch 43.2 (39069) - http://www.bohemiancoding.com/sketch -->
    <title>press</title>
    <desc>Created with Sketch.</desc>
    <defs></defs>
    <g id="Page-1" stroke="none" stroke-width="1" fill="none" fill-rule="evenodd">
        <g id="Desktop-HD-Copy" transform="translate(-821.000000, -308.000000)">
            <g id="press" transform="translate(821.000000, 308.000000)">
                <path d="M61.3272948,0.126600359 C60.9873165,-0.0422001196 60.4773491,-0.0422001196 59.9673817,0.126600359 C45.6882943,5.52821566 32.5991309,6.0346171 20.3599131,5.86581662 C20.0199348,5.86581662 19.5099674,6.0346171 19.3399783,6.37221806 C19,6.54101853 19,6.87861949 19,7.38502093 L19,26.6282755 C19,27.1346769 19,27.4722778 19.3399783,27.8098788 C19.5099674,27.9786793 20.0199348,28.1474798 20.3599131,28.1474798 C22.5697718,27.9786793 24.9496197,27.9786793 27.1594785,27.9786793 L27.1594785,40.8075156 C27.1594785,41.8203185 27.6694459,42.3267199 28.5193916,42.3267199 L38.8887289,42.3267199 C39.7386745,42.3267199 40.4186311,41.8203185 40.4186311,40.8075156 L40.4186311,29.1602826 C47.0482074,30.341886 53.5077945,32.0298908 60.1373708,34.3930975 C60.4773491,34.5618979 60.9873165,34.3930975 61.3272948,34.224297 C61.667273,34.0554965 62.0072513,33.5490951 62.0072513,33.0426936 L62.0072513,1.47700419 C62.0072513,0.97060275 61.667273,0.464201315 61.3272948,0.126600359 Z M59.1643296,3.6440678 L59.1643296,31.3273462 C48.1150358,27.4449352 37.0657419,25.4193295 25.6764698,25.4193295 L21.9367089,25.4193295 L21.9367089,8.87688262 L22.106698,8.87688262 C32.8160135,8.87688262 45.5651987,8.53928167 59.1643296,3.6440678 Z M37.4921802,29.2677312 L37.4921802,39.9021613 L30.0126582,39.9021613 L30.0126582,28.4237288 C32.3925061,28.5925293 35.1123323,28.7613298 37.4921802,29.2677312 Z M76.9281942,3.26082073 L75.2283029,0.728813559 L64.5189873,7.81843365 L66.2188787,10.1816403 L76.9281942,3.26082073 Z M64.5189873,27.1428677 L75.2283029,34.0636873 L76.9281942,31.7004806 L66.2188787,24.779661 L64.5189873,27.1428677 Z M65.2531646,18.734706 L76.4724475,18.734706 L76.4724475,16.0338983 L65.2531646,16.0338983 L65.2531646,18.734706 Z" id="Shape" fill="#0000FF" fill-rule="nonzero"></path>
                <rect id="Rectangle" fill-opacity="0.01" fill="#FFFFFF" x="0" y="2" width="63" height="39"></rect>
            </g>
        </g>
    </g>
</svg>