<?xml version="1.0" encoding="UTF-8"?>
<svg width="39px" height="50px" viewBox="0 0 39 50" version="1.1" xmlns="http://www.w3.org/2000/svg" xmlns:xlink="http://www.w3.org/1999/xlink">
    <!-- Generator: Sketch 43.2 (39069) - http://www.bohemiancoding.com/sketch -->
    <title>Visit</title>
    <desc>Created with Sketch.</desc>
    <defs></defs>
    <g id="Page-1" stroke="none" stroke-width="1" fill="none" fill-rule="evenodd">
        <g id="Desktop-HD-Copy" transform="translate(-933.000000, -305.000000)" fill-rule="nonzero" fill="#0000FF">
            <g id="Visit" transform="translate(933.000000, 305.000000)">
                <path d="M34.4383055,30.5596187 C31.0307809,34.5876179 27.9640088,38.6156172 24.7268605,42.8114498 L20.4674547,48.1821155 L19.2748211,49.8604486 L17.7414351,48.3499488 L17.7414351,48.1821155 L14.1635343,43.6506163 C10.7560097,39.1191171 7.1781089,34.9232846 4.11133679,30.5596187 C2.06682204,27.8742858 0.703812214,25.0211197 0.192683528,21.8322869 C-0.999950073,13.2727884 3.42983187,5.21678987 11.0967622,1.6922905 C13.4820294,0.685290676 15.5265441,0.181790766 17.7414351,0.013957463 C22.8527219,-0.15387584 27.2825039,1.18879059 31.2011571,4.20979005 C34.7790579,6.8951229 37.1643252,10.7552889 38.0162063,14.9511215 C39.0384637,20.6574538 37.6754538,26.0281195 34.4383055,30.5596187 Z M31.3715334,28.7134523 C34.6086817,24.8532864 35.2901866,20.4896205 34.6086817,15.790288 C33.7568006,12.0979553 31.8826621,9.24478915 29.1566424,6.8951229 C26.0898703,4.54545665 23.0230982,3.53845683 19.2748211,3.53845683 L17.9118113,3.53845683 C16.208049,3.70629014 14.5042867,4.20979005 12.6301482,4.88112326 C6.49660399,7.56645611 2.74832696,14.4476215 3.42983187,21.328787 C4.11133679,23.8462865 5.13359416,26.1959528 6.66698022,28.545619 C10.0745048,32.7414516 13.6524056,37.1051175 16.7191777,41.6366167 L19.2748211,44.3219495 L21.8304646,40.7974502 C25.2379891,36.7694509 28.134385,32.7414516 31.3715334,28.7134523 Z M29.4973949,18.6434541 C29.4973949,24.3497864 24.8972367,28.8812856 19.2748211,28.8812856 L19.1044449,28.8812856 C16.3784253,28.8812856 13.8227818,27.5386192 11.9486433,25.5246196 C9.90412856,23.6784532 8.71149496,21.1609537 8.71149496,18.4756208 C8.71149496,15.790288 9.90412856,13.1049551 11.9486433,11.2587888 C13.8227818,9.24478915 16.3784253,8.23778933 19.2748211,8.23778933 C24.8972367,8.40562263 29.4973949,12.9371218 29.4973949,18.6434541 Z M25.9194941,18.4756208 C25.9194941,14.7832882 23.0230982,11.930122 19.2748211,11.7622887 L19.1044449,11.7622887 C17.4006826,11.7622887 15.5265441,12.4336219 14.1635343,13.7762883 C12.8005244,14.9511215 12.2893958,16.6294545 12.2893958,18.4756208 C12.2893958,20.1539539 12.8005244,22.0001202 14.1635343,23.3427866 C15.5265441,24.5176197 17.4006826,25.3567863 19.2748211,25.3567863 C23.0230982,25.3567863 25.9194941,22.1679535 25.9194941,18.4756208 Z" id="Shape"></path>
            </g>
        </g>
    </g>
</svg>