<?xml version="1.0" encoding="UTF-8"?>
<svg width="34px" height="45px" viewBox="0 0 34 45" version="1.1" xmlns="http://www.w3.org/2000/svg" xmlns:xlink="http://www.w3.org/1999/xlink">
    <!-- Generator: Sketch 43.2 (39069) - http://www.bohemiancoding.com/sketch -->
    <title>Visit</title>
    <desc>Created with Sketch.</desc>
    <defs></defs>
    <g id="Page-1" stroke="none" stroke-width="1" fill="none" fill-rule="evenodd">
        <g id="Desktop-HD-Copy" transform="translate(-935.000000, -308.000000)" stroke="#0000FF" stroke-width="3">
            <g id="Visit" transform="translate(935.000000, 308.000000)">
                <path d="M29.3384687,26.6699592 C27.5503722,28.8234272 25.8274201,31.0166516 23.5651384,33.9874419 C23.1471815,34.5362959 22.7204012,35.0988156 22.1507351,35.8511834 C22.2415064,35.7313002 21.0533619,37.3010495 20.7266569,37.7321258 L16.9856358,42.5673154 L13.7324222,38.463664 C13.0709765,37.5667496 12.3424533,36.6060531 11.4601923,35.4619162 C11.5251558,35.5461624 8.50889337,31.6596277 7.68694531,30.5778062 C6.59853403,29.1452744 5.69846727,27.9148428 4.87939396,26.7284308 C3.10546511,24.3547821 2.05100406,22.0011972 1.65257239,19.4707451 C0.692435928,12.4536727 4.24702945,5.79988952 10.4738509,2.88591924 C12.3719042,2.0710198 14.0248063,1.64851442 15.8444072,1.50815399 C20.0006094,1.3706512 23.5717532,2.49614708 26.7359809,4.97941924 C29.5926543,7.16217342 31.5388691,10.306504 32.2330397,13.7870564 C33.0410207,18.380623 32.0215793,22.8212718 29.3384687,26.6699592 L29.3384687,26.6699592 Z" id="Shape" fill-rule="nonzero"></path>
                <ellipse id="Oval" cx="17.2591766" cy="17.5209913" rx="7.40920098" ry="7.5209913"></ellipse>
            </g>
        </g>
    </g>
</svg>